<?xml version="1.0" encoding="UTF-8" standalone="no"?>
<svg
   width="194.60001"
   height="224.71774"
   viewBox="0 -1.74 194.6 224.71775"
   version="1.1"
   id="svg1"
   sodipodi:docname="ps813-hex-sticker.svg"
   inkscape:version="1.4.2 (ebf0e940d0, 2025-05-08)"
   xmlns:inkscape="http://www.inkscape.org/namespaces/inkscape"
   xmlns:sodipodi="http://sodipodi.sourceforge.net/DTD/sodipodi-0.dtd"
   xmlns="http://www.w3.org/2000/svg"
   xmlns:svg="http://www.w3.org/2000/svg">
  <sodipodi:namedview
     inkscape:document-units="px"
     pagecolor="#ffffff"
     bordercolor="#000000"
     borderopacity="0.25"
     inkscape:showpageshadow="2"
     inkscape:pageopacity="0.0"
     inkscape:deskcolor="#d1d1d1"
     id="namedview1"
     inkscape:pagecheckerboard="0"
     showguides="true"
     inkscape:zoom="2.8284271"
     inkscape:cx="145.664"
     inkscape:cy="228.21871"
     inkscape:window-width="3774"
     inkscape:window-height="2083"
     inkscape:window-x="0"
     inkscape:window-y="0"
     inkscape:window-maximized="1"
     inkscape:current-layer="svg1">
    <sodipodi:guide
       position="98.253401,55.950572"
       orientation="0,-1"
       id="guide1"
       inkscape:locked="false" />
    <sodipodi:guide
       position="97.272826,109.91045"
       orientation="1,0"
       id="guide2"
       inkscape:locked="false" />
    <sodipodi:guide
       position="-6.1934198,60.331962"
       orientation="0,-1"
       id="guide3"
       inkscape:locked="false" />
    <sodipodi:guide
       position="208.63621,165.75052"
       orientation="0,-1"
       id="guide4"
       inkscape:locked="false" />
    <sodipodi:guide
       position="185.25846,161.0797"
       orientation="0,-1"
       id="guide5"
       inkscape:locked="false" />
  </sodipodi:namedview>
  <defs
     id="defs1">
    <style
       type="text/css"
       id="style1">
      @import url('https://fonts.googleapis.com/css2?family=Red+Hat+Display:wght@600&amp;display=swap');
    </style>
    <!-- Arrowhead marker for solid arrows -->
    <marker
       id="arrowhead-solid"
       markerWidth="6"
       markerHeight="3"
       refX="0"
       refY="1.5"
       orient="auto"
       markerUnits="strokeWidth">
      <polygon
         points="6,1.5 0,3 0,0 "
         fill="#000000"
         id="polygon1" />
    </marker>
    <!-- Arrowhead marker for dashed arrows -->
    <marker
       id="arrowhead-dashed"
       markerWidth="6"
       markerHeight="3"
       refX="0"
       refY="1.5"
       orient="auto"
       markerUnits="strokeWidth">
      <polygon
         points="6,1.5 0,3 0,0 "
         fill="#000000"
         id="polygon2" />
    </marker>
  </defs>
  <!-- Hex sticker with pointed top/bottom (flat sides left/right) -->
  <!-- Hexagon points calculated for a regular hexagon centered at (100, 115.47) -->
  <!-- Background hexagon - Light Gray #E1E5E7 -->
  <path
     id="hex-background"
     inkscape:label="Background"
     style="fill:#e1e5e7"
     d="M 4,164.48887 V 56.748871 L 97.3,2.8788712 190.6,56.748871 V 164.48887 l -93.3,53.87 z" />
  <!-- Border hexagon - Badger Red #C5050C -->
  <path
     id="hex-border"
     inkscape:label="Border"
     style="fill:none;stroke:#c5050c;stroke-width:8"
     d="M 4,164.48887 V 56.748871 L 97.3,2.8788712 190.6,56.748871 V 164.48887 l -93.3,53.87 z" />
  <!-- DAG Group -->
  <g
     id="dag-group"
     inkscape:label="DAG"
     transform="translate(-2.7,-5.7862901)">
    <!-- DAG Node positions (equilateral triangle):
         U (top): 100, 55
         D (bottom-left): 50, 135
         Y (bottom-right): 150, 135
    -->
    <!-- Arrow: D to Y (solid) -->
    <path
       id="arrow-d-to-y"
       inkscape:label="Arrow D to Y"
       style="stroke:#000000;stroke-width:2;marker-end:url(#arrowhead-solid)"
       d="m 68,135 h 56" />
    <!-- Arrow: U to D (dotted) -->
    <path
       id="arrow-u-to-d"
       inkscape:label="Arrow U to D"
       style="stroke:#000000;stroke-width:2;stroke-linecap:round;stroke-dasharray:1, 4;marker-end:url(#arrowhead-dashed)"
       d="M 90,72 64,110" />
    <!-- Arrow: U to Y (dotted) -->
    <path
       id="arrow-u-to-y"
       inkscape:label="Arrow U to Y"
       style="stroke:#000000;stroke-width:2;stroke-linecap:round;stroke-dasharray:1, 4;marker-end:url(#arrowhead-dashed)"
       d="m 110,72 26,38" />
    <!-- Node labels in Fira Math -->
    <!-- U at top -->
    <path
       d="m 98.824006,62.784 q -3.052,0 -4.704,-1.26 -1.652,-1.288 -1.652,-3.584 0,-0.448 0.084,-1.232 0.112,-0.784 0.224,-1.26 l 2.072,-9.856 q 0.112,-0.448 0.112,-0.784 0,-0.728 -0.56,-0.924 -0.56,-0.196 -1.456,-0.196 h -0.364 l 0.252,-1.176 h 8.148004 l -0.224,1.176 h -0.364 q -0.924004,0 -1.680004,0.364 -0.756,0.336 -1.064,1.652 l -2.1,9.884 q -0.14,0.7 -0.252,1.372 -0.084,0.644 -0.084,1.232 0,1.428 1.064,2.184 1.064,0.728 2.968,0.728 1.820004,0 2.912004,-0.56 1.092,-0.588 1.68,-1.568 0.588,-1.008 0.84,-2.24 l 2.38,-11.144 q 0.112,-0.448 0.112,-0.784 0,-0.728 -0.56,-0.924 -0.56,-0.196 -1.456,-0.196 h -0.364 l 0.252,-1.176 h 7.028 l -0.224,1.176 h -0.364 q -0.924,0 -1.68,0.364 -0.756,0.336 -1.064,1.652 l -2.352,11.088 q -0.588,2.8 -2.408,4.396 -1.82,1.596 -5.152004,1.596 z"
       id="node-u"
       inkscape:label="Node U"
       style="font-style:italic;font-size:28px;font-family:'Fira Math', serif;dominant-baseline:middle;text-anchor:middle"
       aria-label="U" />
    <!-- D at bottom-left -->
    <path
       d="m 39.261995,142.504 0.224,-1.176 h 0.364 q 0.952,0 1.708,-0.336 0.756,-0.364 1.036,-1.68 l 2.912,-13.72 q 0.056,-0.196 0.084,-0.392 0.028,-0.224 0.028,-0.392 0,-0.756 -0.644,-0.924 -0.616,-0.196 -1.372,-0.196 h -0.364 l 0.252,-1.176 h 7.84 q 3.78,0 5.852,1.96 2.1,1.932 2.1,5.656 0,2.492 -0.728,4.732 -0.728,2.24 -2.156,3.976 -1.428,1.708 -3.528,2.688 -2.072,0.98 -4.788,0.98 z m 8.204,-1.428 q 2.772,0 4.732,-1.428 1.96,-1.456 2.996,-3.976 1.036,-2.548 1.036,-5.852 0,-3.08 -1.456,-4.48 -1.428,-1.428 -3.864,-1.428 h -2.212 l -3.668,17.164 z"
       id="node-d"
       inkscape:label="Node D"
       style="font-style:italic;font-size:28px;font-family:'Fira Math', serif;dominant-baseline:middle;text-anchor:middle"
       aria-label="D" />
    <!-- Y at bottom-right -->
    <path
       d="m 144.022,142.504 0.252,-1.176 h 0.644 q 0.924,0 1.652,-0.308 0.756,-0.308 1.036,-1.568 l 1.092,-5.152 -3.248,-9.128 q -0.28,-0.812 -0.588,-1.148 -0.28,-0.336 -1.092,-0.336 h -0.364 l 0.252,-1.176 h 7.56 l -0.252,1.176 h -1.4 q -1.148,0 -1.148,0.756 0,0.364 0.084,0.756 0.112,0.392 0.28,0.868 l 1.26,3.752 q 0.308,0.868 0.504,1.764 0.224,0.896 0.252,1.596 0.308,-0.588 0.868,-1.316 0.56,-0.728 1.316,-1.736 l 2.604,-3.472 q 1.008,-1.372 1.008,-2.24 0,-0.392 -0.308,-0.56 -0.28,-0.168 -1.036,-0.168 h -1.036 l 0.252,-1.176 h 6.916 l -0.252,1.176 h -0.532 q -0.616,0 -1.176,0.532 -0.56,0.532 -1.372,1.596 l -6.524,8.54 -1.092,5.068 q -0.112,0.448 -0.112,0.784 0,0.7 0.56,0.924 0.588,0.196 1.456,0.196 h 0.644 l -0.252,1.176 z"
       id="node-y"
       inkscape:label="Node Y"
       style="font-style:italic;font-size:28px;font-family:'Fira Math', serif;dominant-baseline:middle;text-anchor:middle"
       aria-label="Y" />
  </g>
  <!-- Center text - ps813 in Badger Red (smaller font) -->
  <path
     transform="translate(-2.7,0)"
     style="font-weight:600;font-size:32px;font-family:'Red Hat Display';-inkscape-font-specification:'Red Hat Display Semi-Bold';dominant-baseline:middle;text-anchor:middle;fill:#c5050c"
     d="m 57.613945,179.82289 v -22.816 h 3.168 v 1.568 q 2.048,-1.824 4.992,-1.824 2.304,0 4.16,1.12 1.888,1.12 2.976,3.008 1.088,1.888 1.088,4.256 0,2.368 -1.12,4.288 -1.088,1.888 -2.976,3.008 -1.856,1.12 -4.192,1.12 -1.344,0 -2.592,-0.416 -1.248,-0.448 -2.304,-1.248 v 7.936 z m 7.744,-9.056 q 1.568,0 2.784,-0.736 1.248,-0.736 1.984,-1.984 0.736,-1.28 0.736,-2.88 0,-1.6 -0.736,-2.88 -0.736,-1.28 -1.984,-2.016 -1.216,-0.736 -2.784,-0.736 -1.376,0 -2.56,0.512 -1.184,0.512 -1.984,1.44 v 7.36 q 0.8,0.896 1.984,1.408 1.216,0.512 2.56,0.512 z m 17.280011,2.848 q -2.112,0 -3.968,-0.608 -1.824,-0.64 -3.168,-1.792 l 1.76,-2.112 q 1.248,0.992 2.56,1.536 1.344,0.512 2.72,0.512 1.728,0 2.816,-0.672 1.088,-0.672 1.088,-1.76 0,-0.896 -0.64,-1.408 -0.64,-0.512 -1.984,-0.704 l -2.944,-0.416 q -2.432,-0.352 -3.648,-1.504 -1.216,-1.152 -1.216,-3.072 0,-1.472 0.8,-2.56 0.8,-1.12 2.24,-1.728 1.44,-0.64 3.36,-0.64 1.76,0 3.392,0.512 1.632,0.512 3.136,1.6 l -1.632,2.112 q -1.344,-0.896 -2.624,-1.312 -1.248,-0.416 -2.528,-0.416 -1.472,0 -2.368,0.64 -0.896,0.608 -0.896,1.6 0,0.896 0.608,1.408 0.64,0.48 2.08,0.672 l 2.944,0.416 q 2.432,0.352 3.68,1.504 1.248,1.12 1.248,3.04 0,1.472 -0.896,2.656 -0.896,1.152 -2.432,1.824 -1.536,0.672 -3.488,0.672 z m 17.184005,0.032 q -2.4,0 -4.256,-0.832 -1.824,-0.832 -2.88,-2.304 -1.056,-1.472 -1.056,-3.36 0,-1.312 0.608,-2.432 0.64,-1.12 1.76,-1.952 1.152,-0.832 2.592,-1.184 -1.856,-0.576 -3.008,-1.952 -1.152,-1.376 -1.152,-3.072 0,-1.728 0.96,-3.072 0.992,-1.376 2.656,-2.144 1.664,-0.8 3.776,-0.8 2.111999,0 3.775999,0.8 1.696,0.768 2.656,2.144 0.96,1.344 0.96,3.072 0,1.696 -1.152,3.072 -1.152,1.376 -3.008,1.952 2.208,0.576 3.584,2.112 1.376,1.504 1.376,3.456 0,1.888 -1.056,3.36 -1.024,1.472 -2.88,2.304 -1.856,0.832 -4.255999,0.832 z m 0,-13.248 q 1.247999,0 2.239999,-0.48 0.992,-0.48 1.568,-1.312 0.576,-0.832 0.576,-1.856 0,-1.056 -0.576,-1.888 -0.576,-0.864 -1.568,-1.312 -0.992,-0.48 -2.239999,-0.48 -1.248,0 -2.24,0.48 -0.992,0.448 -1.568,1.28 -0.576,0.832 -0.576,1.888 0,1.056 0.576,1.888 0.576,0.832 1.568,1.312 0.992,0.48 2.24,0.48 z m 0,10.72 q 1.471999,0 2.623999,-0.512 1.152,-0.544 1.824,-1.472 0.672,-0.96 0.672,-2.144 0,-1.184 -0.672,-2.112 -0.672,-0.96 -1.824,-1.472 -1.152,-0.544 -2.623999,-0.544 -1.472,0 -2.624,0.544 -1.152,0.544 -1.824,1.472 -0.672,0.928 -0.672,2.112 0,1.184 0.672,2.144 0.672,0.928 1.824,1.472 1.152,0.512 2.624,0.512 z m 14.719989,2.176 v -19.104 l -4.032,1.696 v -2.816 l 5.184,-2.176 h 2.016 v 22.4 z m 14.49598,0.352 q -2.4,0 -4.512,-0.832 -2.08,-0.864 -3.616,-2.464 l 2.08,-1.984 q 1.344,1.408 2.72,2.016 1.408,0.576 3.296,0.576 1.504,0 2.656,-0.512 1.184,-0.512 1.824,-1.408 0.64,-0.896 0.64,-2.08 0,-1.088 -0.576,-1.92 -0.544,-0.864 -1.504,-1.312 -0.928,-0.48 -2.208,-0.48 h -2.72 v -2.592 h 2.496 q 1.696,0 2.72,-0.992 1.024,-0.992 1.024,-2.592 0,-1.056 -0.576,-1.92 -0.576,-0.864 -1.6,-1.344 -0.992,-0.512 -2.272,-0.512 -1.696,0 -3.008,0.608 -1.28,0.576 -2.656,2.048 l -2.08,-1.984 q 1.536,-1.664 3.552,-2.528 2.016,-0.896 4.256,-0.896 2.176,0 3.84,0.8 1.696,0.8 2.656,2.24 0.992,1.408 0.992,3.2 0,1.76 -1.184,3.168 -1.152,1.376 -3.04,1.92 2.272,0.48 3.616,1.92 1.344,1.408 1.344,3.328 0,1.888 -1.056,3.36 -1.024,1.472 -2.88,2.336 -1.856,0.832 -4.224,0.832 z"
     id="text-ps813"
     inkscape:label="Text"
     aria-label="ps813" />
</svg>
